<mxfile host="app.diagrams.net" agent="Mozilla/5.0 (Windows NT 10.0; Win64; x64) AppleWebKit/537.36 (KHTML, like Gecko) Chrome/132.0.0.0 Safari/537.36" version="26.0.14">
  <diagram name="第 1 页" id="C-d_J6np51PSpjA0dG-Z">
    <mxGraphModel dx="1434" dy="738" grid="1" gridSize="10" guides="1" tooltips="1" connect="1" arrows="1" fold="1" page="1" pageScale="1" pageWidth="827" pageHeight="1169" math="0" shadow="0">
      <root>
        <mxCell id="0" />
        <mxCell id="1" parent="0" />
        <mxCell id="HDlahi36_DwtvmR1-DTq-4" value="" style="edgeStyle=orthogonalEdgeStyle;rounded=0;orthogonalLoop=1;jettySize=auto;html=1;" edge="1" parent="1" source="HDlahi36_DwtvmR1-DTq-1" target="HDlahi36_DwtvmR1-DTq-3">
          <mxGeometry relative="1" as="geometry" />
        </mxCell>
        <mxCell id="HDlahi36_DwtvmR1-DTq-1" value="CLoginGame" style="ellipse;whiteSpace=wrap;html=1;" vertex="1" parent="1">
          <mxGeometry x="80" y="190" width="120" height="80" as="geometry" />
        </mxCell>
        <mxCell id="HDlahi36_DwtvmR1-DTq-13" value="" style="edgeStyle=orthogonalEdgeStyle;rounded=0;orthogonalLoop=1;jettySize=auto;html=1;" edge="1" parent="1" source="HDlahi36_DwtvmR1-DTq-3" target="HDlahi36_DwtvmR1-DTq-12">
          <mxGeometry relative="1" as="geometry" />
        </mxCell>
        <mxCell id="HDlahi36_DwtvmR1-DTq-3" value="验证openid和token长度" style="rounded=0;whiteSpace=wrap;html=1;" vertex="1" parent="1">
          <mxGeometry x="240" y="200" width="160" height="60" as="geometry" />
        </mxCell>
        <mxCell id="HDlahi36_DwtvmR1-DTq-7" value="" style="edgeStyle=orthogonalEdgeStyle;rounded=0;orthogonalLoop=1;jettySize=auto;html=1;" edge="1" parent="1" source="HDlahi36_DwtvmR1-DTq-5" target="HDlahi36_DwtvmR1-DTq-6">
          <mxGeometry relative="1" as="geometry" />
        </mxCell>
        <mxCell id="HDlahi36_DwtvmR1-DTq-5" value="Accept" style="rounded=0;whiteSpace=wrap;html=1;" vertex="1" parent="1">
          <mxGeometry x="80" y="70" width="120" height="60" as="geometry" />
        </mxCell>
        <mxCell id="HDlahi36_DwtvmR1-DTq-9" value="" style="edgeStyle=orthogonalEdgeStyle;rounded=0;orthogonalLoop=1;jettySize=auto;html=1;" edge="1" parent="1" source="HDlahi36_DwtvmR1-DTq-6" target="HDlahi36_DwtvmR1-DTq-8">
          <mxGeometry relative="1" as="geometry" />
        </mxCell>
        <mxCell id="HDlahi36_DwtvmR1-DTq-6" value="CreateUserEntity" style="rounded=0;whiteSpace=wrap;html=1;" vertex="1" parent="1">
          <mxGeometry x="260" y="70" width="120" height="60" as="geometry" />
        </mxCell>
        <mxCell id="HDlahi36_DwtvmR1-DTq-19" value="" style="edgeStyle=orthogonalEdgeStyle;rounded=0;orthogonalLoop=1;jettySize=auto;html=1;" edge="1" parent="1" source="HDlahi36_DwtvmR1-DTq-8" target="HDlahi36_DwtvmR1-DTq-18">
          <mxGeometry relative="1" as="geometry" />
        </mxCell>
        <mxCell id="HDlahi36_DwtvmR1-DTq-8" value="CreateComponent&amp;lt;VerifyComponent&amp;gt;()" style="rounded=0;whiteSpace=wrap;html=1;" vertex="1" parent="1">
          <mxGeometry x="440" y="70" width="260" height="60" as="geometry" />
        </mxCell>
        <mxCell id="HDlahi36_DwtvmR1-DTq-15" value="" style="edgeStyle=orthogonalEdgeStyle;rounded=0;orthogonalLoop=1;jettySize=auto;html=1;" edge="1" parent="1" source="HDlahi36_DwtvmR1-DTq-12" target="HDlahi36_DwtvmR1-DTq-14">
          <mxGeometry relative="1" as="geometry" />
        </mxCell>
        <mxCell id="HDlahi36_DwtvmR1-DTq-12" value="VerifyConn_" style="shape=process;whiteSpace=wrap;html=1;backgroundOutline=1;" vertex="1" parent="1">
          <mxGeometry x="440" y="200" width="120" height="60" as="geometry" />
        </mxCell>
        <mxCell id="HDlahi36_DwtvmR1-DTq-17" value="" style="edgeStyle=orthogonalEdgeStyle;rounded=0;orthogonalLoop=1;jettySize=auto;html=1;" edge="1" parent="1" source="HDlahi36_DwtvmR1-DTq-14" target="HDlahi36_DwtvmR1-DTq-16">
          <mxGeometry relative="1" as="geometry" />
        </mxCell>
        <mxCell id="HDlahi36_DwtvmR1-DTq-14" value="CreateComponent&amp;lt;LoginComponent&amp;gt;()&lt;br&gt;生成玩家的session_id&lt;br&gt;记录到状态到gate" style="rounded=0;whiteSpace=wrap;html=1;" vertex="1" parent="1">
          <mxGeometry x="620" y="200" width="220" height="60" as="geometry" />
        </mxCell>
        <mxCell id="HDlahi36_DwtvmR1-DTq-21" value="" style="edgeStyle=orthogonalEdgeStyle;rounded=0;orthogonalLoop=1;jettySize=auto;html=1;" edge="1" parent="1" source="HDlahi36_DwtvmR1-DTq-16" target="HDlahi36_DwtvmR1-DTq-20">
          <mxGeometry relative="1" as="geometry" />
        </mxCell>
        <mxCell id="HDlahi36_DwtvmR1-DTq-16" value="向session发送MReqVerify" style="rounded=0;whiteSpace=wrap;html=1;" vertex="1" parent="1">
          <mxGeometry x="900" y="200" width="120" height="60" as="geometry" />
        </mxCell>
        <mxCell id="HDlahi36_DwtvmR1-DTq-18" value="end" style="whiteSpace=wrap;html=1;rounded=0;" vertex="1" parent="1">
          <mxGeometry x="760" y="70" width="120" height="60" as="geometry" />
        </mxCell>
        <mxCell id="HDlahi36_DwtvmR1-DTq-20" value="end" style="whiteSpace=wrap;html=1;rounded=0;" vertex="1" parent="1">
          <mxGeometry x="1090" y="200" width="120" height="60" as="geometry" />
        </mxCell>
      </root>
    </mxGraphModel>
  </diagram>
</mxfile>
